<?xml version="1.0" encoding="utf-8"?>
<!-- Generator: Adobe Illustrator 19.2.1, SVG Export Plug-In . SVG Version: 6.00 Build 0)  -->
<!DOCTYPE svg PUBLIC "-//W3C//DTD SVG 1.1//EN" "http://www.w3.org/Graphics/SVG/1.1/DTD/svg11.dtd">
<svg version="1.1" id="Layer_1" xmlns="http://www.w3.org/2000/svg" xmlns:xlink="http://www.w3.org/1999/xlink" x="0px" y="0px"
	 viewBox="0 0 31 31" enable-background="new 0 0 31 31" xml:space="preserve">
<path fill="#0B3D88" d="M15.5,0C6.9,0,0,6.9,0,15.5C0,24.1,6.9,31,15.5,31C24.1,31,31,24.1,31,15.5C31,6.9,24.1,0,15.5,0z
	 M23.4,21.4v1H7.6v-1.7c0-1.1,1.6-1.6,2.4-2c0.5-0.2,1-0.4,1.5-0.6c0.7-0.3,1.3-0.7,1.8-1.2c0.2-0.2,0.3-0.3,0.3-0.6
	c0-0.4-0.1-0.8-0.2-1.2c-0.1-0.6-0.4-1.1-0.7-1.6c-0.3-0.7-0.4-1.4-0.5-2.1c-0.1-0.3-0.2-0.6-0.2-0.9c0-2.1,1.1-4,3.4-4
	c2.3,0,3.4,1.9,3.4,4c0,0.3-0.1,0.6-0.1,0.9c-0.1,0.7-0.2,1.4-0.5,2.1c-0.2,0.5-0.5,1-0.7,1.6c-0.1,0.4-0.2,0.8-0.2,1.2
	c0,0.3,0.1,0.4,0.3,0.6c0.5,0.6,1.2,0.9,1.8,1.2c0.5,0.2,1,0.4,1.5,0.6c0.8,0.3,2.4,0.9,2.4,2V21.4z"/>
</svg>
