<?xml version="1.0" encoding="utf-8"?>
<!-- Generator: Adobe Illustrator 19.2.1, SVG Export Plug-In . SVG Version: 6.00 Build 0)  -->
<!DOCTYPE svg PUBLIC "-//W3C//DTD SVG 1.1//EN" "http://www.w3.org/Graphics/SVG/1.1/DTD/svg11.dtd">
<svg version="1.1" id="Layer_1" xmlns="http://www.w3.org/2000/svg" xmlns:xlink="http://www.w3.org/1999/xlink" x="0px" y="0px"
	 viewBox="0 0 14.3 10.4" enable-background="new 0 0 14.3 10.4" xml:space="preserve">
<g>
	<path fill="#0B3D88" d="M14,4.7c0.2,0.1,0.2,0.2,0.2,0.4c0,0.2-0.1,0.3-0.2,0.4l0,0L11,8.7c-1,1.1-2.3,1.7-3.9,1.7
		c-1.3,0-2.5-0.5-3.5-1.4v0L0.2,5.6C0.1,5.5,0,5.4,0,5.2s0-0.3,0.1-0.4l3.1-3.1C4.3,0.6,5.6,0,7.1,0c1.4,0,2.5,0.5,3.6,1.4v0L14,4.7
		z M4.6,7.7c0.7,0.7,1.5,1,2.5,1c1,0,1.8-0.3,2.5-1c0.7-0.7,1-1.5,1-2.5c0-1-0.3-1.8-1-2.5c-0.7-0.7-1.5-1-2.5-1c-1,0-1.8,0.3-2.5,1
		c-0.7,0.7-1,1.5-1,2.5C3.6,6.2,3.9,7,4.6,7.7z M5.4,5.2c0-1.1,0.6-1.7,1.7-1.7c1.1,0,1.7,0.6,1.7,1.7c0,1.1-0.6,1.7-1.7,1.7
		C6,6.9,5.4,6.3,5.4,5.2z"/>
</g>
</svg>
