<?xml version="1.0" encoding="utf-8"?>
<!-- Generator: Adobe Illustrator 19.2.1, SVG Export Plug-In . SVG Version: 6.00 Build 0)  -->
<!DOCTYPE svg PUBLIC "-//W3C//DTD SVG 1.1//EN" "http://www.w3.org/Graphics/SVG/1.1/DTD/svg11.dtd">
<svg version="1.1" id="Layer_1" xmlns="http://www.w3.org/2000/svg" xmlns:xlink="http://www.w3.org/1999/xlink" x="0px" y="0px"
	 viewBox="0 0 14.2 20.4" enable-background="new 0 0 14.2 20.4" xml:space="preserve">
<g>
	<path fill="#0B3D88" d="M14.2,10.2c0,3.6-2.8,6.6-6.3,7v1.6H11c0.4,0,0.8,0.4,0.8,0.8s-0.4,0.8-0.8,0.8H3.1c-0.4,0-0.8-0.4-0.8-0.8
		s0.4-0.8,0.8-0.8h3.1v-1.6c-3.5-0.4-6.3-3.4-6.3-7V8.6c0-0.4,0.4-0.8,0.8-0.8s0.8,0.4,0.8,0.8v1.6c0,3,2.5,5.5,5.5,5.5
		s5.5-2.5,5.5-5.5V8.6c0-0.4,0.4-0.8,0.8-0.8s0.8,0.4,0.8,0.8V10.2z M11,10.2c0,2.2-1.8,3.9-3.9,3.9s-3.9-1.8-3.9-3.9V3.9
		C3.1,1.8,4.9,0,7.1,0S11,1.8,11,3.9V10.2z"/>
</g>
</svg>
