<?xml version="1.0" encoding="utf-8"?>
<!-- Generator: Adobe Illustrator 19.2.1, SVG Export Plug-In . SVG Version: 6.00 Build 0)  -->
<!DOCTYPE svg PUBLIC "-//W3C//DTD SVG 1.1//EN" "http://www.w3.org/Graphics/SVG/1.1/DTD/svg11.dtd">
<svg version="1.1" id="Layer_1" xmlns="http://www.w3.org/2000/svg" xmlns:xlink="http://www.w3.org/1999/xlink" x="0px" y="0px"
	 viewBox="0 0 11.6 16.7" enable-background="new 0 0 11.6 16.7" xml:space="preserve">
<g>
	<path fill="#79C3E5" d="M11.6,8.4c0,3-2.2,5.4-5.1,5.7v1.3H9c0.4,0,0.6,0.3,0.6,0.6S9.3,16.7,9,16.7H2.6c-0.4,0-0.6-0.3-0.6-0.6
		s0.3-0.6,0.6-0.6h2.6v-1.3C2.2,13.8,0,11.3,0,8.4V7.1c0-0.4,0.3-0.6,0.6-0.6s0.6,0.3,0.6,0.6v1.3c0,2.5,2,4.5,4.5,4.5
		s4.5-2,4.5-4.5V7.1c0-0.4,0.3-0.6,0.6-0.6s0.6,0.3,0.6,0.6V8.4z M9,8.4c0,1.8-1.4,3.2-3.2,3.2s-3.2-1.4-3.2-3.2V3.2
		C2.6,1.4,4,0,5.8,0S9,1.4,9,3.2V8.4z"/>
</g>
</svg>
