<?xml version="1.0" encoding="utf-8"?>
<!-- Generator: Adobe Illustrator 19.2.1, SVG Export Plug-In . SVG Version: 6.00 Build 0)  -->
<!DOCTYPE svg PUBLIC "-//W3C//DTD SVG 1.1//EN" "http://www.w3.org/Graphics/SVG/1.1/DTD/svg11.dtd">
<svg version="1.1" id="Layer_1" xmlns="http://www.w3.org/2000/svg" xmlns:xlink="http://www.w3.org/1999/xlink" x="0px" y="0px"
	 viewBox="0 0 13.9 12.8" enable-background="new 0 0 13.9 12.8" xml:space="preserve">
<g>
	<path fill="#0B3D88" d="M13.5,5.4L9.9,8l1.4,4.1c0,0.1,0.1,0.2,0.1,0.4c0,0.2,0,0.3-0.2,0.3c-0.2,0-0.4-0.1-0.5-0.2L6.9,10
		l-3.6,2.5c-0.1,0.1-0.3,0.2-0.5,0.2c-0.2,0-0.2-0.1-0.2-0.3c0-0.1,0-0.3,0.1-0.4L4,8L0.4,5.4C0.2,5.3,0,5.1,0,4.9
		c0-0.3,0.4-0.3,0.6-0.3l4.5,0l1.4-4.1C6.6,0.3,6.7,0,6.9,0c0.2,0,0.4,0.3,0.4,0.5l1.4,4.1l4.5,0c0.2,0,0.7,0,0.7,0.3
		C13.9,5.1,13.6,5.3,13.5,5.4z"/>
</g>
</svg>
