<?xml version="1.0" encoding="utf-8"?>
<!-- Generator: Adobe Illustrator 19.2.1, SVG Export Plug-In . SVG Version: 6.00 Build 0)  -->
<!DOCTYPE svg PUBLIC "-//W3C//DTD SVG 1.1//EN" "http://www.w3.org/Graphics/SVG/1.1/DTD/svg11.dtd">
<svg version="1.1" id="Layer_1" xmlns="http://www.w3.org/2000/svg" xmlns:xlink="http://www.w3.org/1999/xlink" x="0px" y="0px"
	 viewBox="0 0 35 35" enable-background="new 0 0 35 35" xml:space="preserve">
<path fill="#0B3D88" d="M17.5,0C7.8,0,0,7.8,0,17.5S7.8,35,17.5,35C27.2,35,35,27.2,35,17.5S27.2,0,17.5,0z M23,19.2
	c0,1.7-0.2,3-0.7,3.9c-0.9,1.7-2.5,2.6-4.8,2.6c-2.4,0-4-0.9-4.8-2.6c-0.5-0.9-0.7-2.2-0.7-3.9v-7.8h2.2v8.6c0,1,0.2,1.8,0.5,2.4
	c0.5,0.9,1.4,1.4,2.7,1.4c1.5,0,2.5-0.5,3.1-1.5c0.3-0.6,0.4-1.3,0.4-2.3v-8.6H23V19.2z"/>
</svg>
