<?xml version="1.0" encoding="utf-8"?>
<!-- Generator: Adobe Illustrator 19.2.1, SVG Export Plug-In . SVG Version: 6.00 Build 0)  -->
<!DOCTYPE svg PUBLIC "-//W3C//DTD SVG 1.1//EN" "http://www.w3.org/Graphics/SVG/1.1/DTD/svg11.dtd">
<svg version="1.1" id="Layer_1" xmlns="http://www.w3.org/2000/svg" xmlns:xlink="http://www.w3.org/1999/xlink" x="0px" y="0px"
	 viewBox="0 0 529.2 528" enable-background="new 0 0 529.2 528" xml:space="preserve">
<g opacity="0.1">
	<path fill="#FFFFFF" d="M264.7,121.5c-112.1,0-203.3,91.2-203.3,203.3c0,53.2,20.5,101.6,54.1,137.9l-0.1,0.1
		c0.6,0.6,1.2,1.2,2,1.8c23.7,24.9,53.5,43.9,87.1,54.3c0.5,0.7,1.1,1.3,1.6,1.8l1-1c18.3,5.4,37.6,8.4,57.6,8.4
		C376.8,528,468,436.8,468,324.7C468,212.7,376.8,121.5,264.7,121.5z M402,448.4l0.6,0.4c-5.8,6.4-12.1,12.5-18.7,18
		c-33.4,9.2-68.9,15-111.9-2.3c8.9-3.8,18.2-8.1,27.8-13.2c11.8-6.3,23.1-13.3,33.8-21c2.9,1.1,6,1.8,9.3,1.8
		c14,0,25.3-11.3,25.3-25.3c0-1.7-0.2-3.4-0.5-5.1c13.5-13.3,25.4-27.8,35.5-43.2C419.5,405.6,409.6,438,402,448.4z M129.6,451.8
		c-8.3-8.8-15.7-18.3-22.1-28.6c-1.6-11.4-2.7-28.9,0.2-49.8c11.1,1.9,24.3,3.5,39.6,4.4c5.3,6.8,11,13.8,17.3,20.9
		c-0.1,0.7-0.2,1.3-0.2,2c0,5.9,4.8,10.7,10.7,10.7c0.3,0,0.7-0.1,1-0.1c6.1,6.3,12.2,12.2,18.3,17.6c-0.7,13.7-0.8,26.3-0.4,37.5
		C159.7,468.6,138,459,129.6,451.8z M166.9,257.9c2.4,1.9,5.3,3.1,8.6,3.1c7.5,0,13.6-6.1,13.6-13.6c0-2.9-0.9-5.5-2.4-7.7
		c21.1-17.8,41.6-30.7,61.1-40c-7,15.8-14,34.2-20.7,55.2c-14.4,1.6-25.6,13.8-25.6,28.6c0,1.2,0.1,2.5,0.3,3.7
		c-28.3,5.8-52,12.4-71.3,18.8C139.4,290,151.2,273.8,166.9,257.9z M305.4,143.7c2.6,0.6,5.2,1.2,7.7,1.9c1.7,4.8,4,12.6,6,23.4
		c-12.6,1.9-26.6,5.1-41.6,10.4C290.2,156.7,300.5,146.6,305.4,143.7z M326.9,149.9c12.5,4.5,24.4,10.2,35.5,17.1
		c-9-0.6-20.1-0.7-33,0.6C328.6,159.9,327.7,153.9,326.9,149.9z M416.9,283.1c-2.6,11.8-6.5,24-12,36.1
		c-5.8-10.7-12.8-21.9-21.2-33.4c1.3-1.8,2.4-3.9,3.1-6.1C399,280.4,408.9,281.6,416.9,283.1z M358.1,386.7c-4.2-3.2-9.4-5-15.1-5
		c-14,0-25.3,11.3-25.3,25.3c0,4.1,1,8,2.7,11.4c-9,6.2-18.6,12.1-28.8,17.5c-5.4,2.8-10.6,5.4-15.7,7.8
		c10.7-21.9,21.7-47.8,30.8-76.5c31.1-5.3,59.1-12.1,83-20C381,360.8,370.5,374.1,358.1,386.7z M175,390.1c-1.1,0-2.2,0.2-3.2,0.6
		c-3.9-4.1-7.5-8.1-10.9-12.2c5.5,0.2,11.2,0.3,17.1,0.3c6.7,0,13.8-0.1,21.1-0.4c-1.7,12.3-2.9,24.1-3.8,35.3
		c-3.4-3.1-6.7-6.2-10.2-9.6c0.3-1.1,0.6-2.2,0.6-3.3C185.7,394.9,180.9,390.1,175,390.1z M125.2,320.1c19.7-8.3,45.8-17,79.2-24.3
		c1.9,4.1,4.8,7.6,8.3,10.3c-4.9,20.2-8.8,40-11.7,58.9c-19.1,0.7-36.1,0.5-50.9-0.3C139.1,349.5,131.1,334.6,125.2,320.1z
		 M136.9,363.8c-10.2-0.9-19.2-2.1-26.9-3.4c1.8-8.6,4.4-17.7,7.9-27.1C123.1,342.9,129.4,353.1,136.9,363.8z M281.3,283.7
		c1.8,3.3,5.3,5.6,9.3,5.6c4.8,0,8.7-3.1,10.1-7.4c6.3-0.5,12.4-1,18.2-1.4c-0.8,5.9-1.8,12-3,18.3c-7.1,0.5-12.7,6.3-12.7,13.6
		c0,5.3,3.1,9.8,7.5,12.1c-2.4,10.3-4.9,20.3-7.7,29.8c-7.6,1.3-15.3,2.5-23.2,3.6c-2.7-8.4-10.5-14.5-19.7-14.5
		c-10.9,0-19.8,8.4-20.7,19.1c-7.1,0.6-14,1.2-20.6,1.6c2.7-16.3,6.1-33.7,10.5-52c0.3,0,0.6,0,1,0c14.9,0,27.2-11.3,28.6-25.8
		C266.2,285.4,273.6,284.5,281.3,283.7z M343.2,279.4c3,9.2,11.6,15.9,21.8,15.9c1.2,0,2.4-0.2,3.5-0.4
		c9.6,13.1,17.3,25.6,23.4,37.4c-22.9,8-50.3,15-80.9,20.5c2.5-8.8,4.7-17.8,6.8-26.9c7.1-0.5,12.8-6.3,12.8-13.6
		c0-5.4-3.2-10.1-7.8-12.3c1.2-6.9,2.2-13.5,3.1-20C332,279.8,337.8,279.5,343.2,279.4z M216.8,377.5c8.3-0.5,16.9-1.1,25.8-2
		c3.7,5.8,10.1,9.6,17.5,9.6c9,0,16.7-5.8,19.5-13.8c6.5-0.9,12.8-1.8,19-2.8c-10.4,32.1-22.5,58.8-34.1,80.2
		c-4.9,2-9.7,3.9-14.3,5.5c-12.2-6.8-25-15.5-38.4-26.4C212.6,412.8,214.2,395.9,216.8,377.5z M342.2,270.4c-4.8,0.2-9.8,0.4-15,0.7
		c0.9-7.2,1.6-14,2.2-20.6c4.8,4.5,9.5,9.2,14.1,14.1C342.7,266.5,342.3,268.4,342.2,270.4z M320.2,271.6
		c-6.6,0.4-13.4,0.9-20.5,1.6c-1.9-3.1-5.2-5.1-9.1-5.1c-4.6,0-8.5,2.9-10,7c-1.6,0.2-3.1,0.3-4.7,0.5c-6,0.7-11.8,1.4-17.5,2.1
		c-1.7-8.3-6.9-15.2-14-19.2c7-21.7,14-39.7,20.6-54.4c20.3,10.9,39.7,24.6,57.6,40.6C322.2,253,321.4,262,320.2,271.6z
		 M274.5,188.9c16.5-5.4,32-8.4,46.3-9.5c1.6,11.6,2.8,25.7,2.7,42.5C307.4,208.7,290.9,197.7,274.5,188.9z M97.5,357.8
		c-7.2-1.7-12.6-3.5-16.3-5.2c-0.4-2.7-0.8-5.5-1.1-8.3c5.7-4.1,15.2-10.2,29.3-17C104,338.1,100.2,348.4,97.5,357.8z M94.3,370.7
		c-1.5,7.9-2.3,15.1-2.5,21.6c-3.1-7.9-5.7-16.1-7.7-24.5C87.2,368.8,90.6,369.7,94.3,370.7z M211.3,442.9
		c8,6.1,15.9,11.5,23.6,16.2c-8.3,2.4-16.2,4.1-23.6,5.3C211.1,457.9,211.1,450.7,211.3,442.9z M250.3,472.8
		c-10.1,15.8-18.8,27-24.3,33.5c-3.3-0.7-6.5-1.5-9.7-2.3c-1.5-4.4-2.9-11.8-3.9-21.9C224.1,480.3,236.7,477.3,250.3,472.8z
		 M434.1,287.7c7.2,2.7,11.5,5.6,14,8.2c0.4,2.4,0.7,4.8,1,7.2c-6.4,5.5-14.7,10.8-24.7,15.9C428.5,308.4,431.8,298,434.1,287.7z
		 M436.4,275.5c0.9-5.8,1.4-11.6,1.6-17.3c2.4,6.2,4.4,12.5,6.2,18.9C441.8,276.6,439.2,276.1,436.4,275.5z M418.8,272.8
		c-8.7-1.1-18.9-1.9-30.9-2.4c-1-11.9-10.8-21.2-22.9-21.2c-3.5,0-6.8,0.9-9.8,2.3c-7.9-8.4-16.1-16.2-24.4-23.4
		c0.9-19.7,0.5-36.2-0.5-49.2c24.7-0.7,45,3.7,59.1,8.6c8.4,7.6,16.1,16.1,23,25.1l-0.1,0C420,229.8,422.1,250.6,418.8,272.8z
		 M283.3,140c-8.2,9.1-17.1,22.4-26.2,40.1c-28.1-12.9-55-19.5-77.4-20.4c25.5-13.2,54.4-20.7,85-20.7
		C271,139.1,277.2,139.4,283.3,140z M144.9,183.1l0.1,0.2c17.9-10.4,53.7-7.6,91.3,7.2c2.6,1,5.2,2.1,7.7,3.2
		c-19.5,10.1-40.1,23.9-61.1,42.3c-2.1-1.4-4.7-2.2-7.4-2.2c-7.5,0-13.6,6.1-13.6,13.6c0,2.4,0.7,4.7,1.8,6.6
		c-18.7,18.8-32.7,36.6-43.1,53.3c-12-37.3-9.7-70.3-5-93C124.1,202.8,134,192.4,144.9,183.1z M93.6,252.7
		c0.3,15.1,3.7,35.7,14.7,61c-12.8,4.9-22.5,9.3-29.2,12.5c0-0.5,0-1,0-1.5C79.1,299.2,84.3,274.9,93.6,252.7z M168.4,483.4
		c5.1,0.6,10.6,0.9,16.4,0.9c3.3,0,6.8-0.1,10.3-0.3c0.5,4.9,1.1,9.5,1.9,13.6C187,493.6,177.5,488.9,168.4,483.4z M238.8,508.5
		c5-7.5,12.9-19.7,21.8-35.6c33.5,15.4,62.8,19.5,82.5,20c-23.8,11.2-50.4,17.4-78.4,17.4C255.9,510.4,247.3,509.7,238.8,508.5z
		 M429.6,409.9c0.5-19.3-3.2-43.2-14.9-70.5c0.3-0.6,0.7-1.3,1-1.9c13.7-5.8,25.2-12,34.5-18.6c0.1,2,0.1,3.9,0.1,5.9
		C450.3,355.4,442.8,384.4,429.6,409.9z"/>
	<path fill="#FFFFFF" d="M264.1,93.5c6.1,0,11-4.9,11-11V11c0-6.1-4.9-11-11-11s-11,4.9-11,11v71.4C253.1,88.6,258,93.5,264.1,93.5z
		"/>
	<path fill="#FFFFFF" d="M145.8,113.3c1.9,3.9,5.8,6.1,9.9,6.1c1.7,0,3.3-0.4,4.9-1.2c5.4-2.7,7.6-9.3,4.9-14.8l-32-63.9
		c-2.7-5.4-9.3-7.6-14.8-4.9c-5.4,2.7-7.6,9.3-4.9,14.8L145.8,113.3z"/>
	<path fill="#FFFFFF" d="M72.4,188c3.8,0,7.4-1.9,9.5-5.4c3.1-5.2,1.4-12-3.8-15.1L16.7,131c-5.2-3.1-12-1.4-15.1,3.8
		c-3.1,5.2-1.4,12,3.8,15.1l61.4,36.6C68.5,187.5,70.5,188,72.4,188z"/>
	<path fill="#FFFFFF" d="M368.6,118.2c1.6,0.8,3.3,1.2,4.9,1.2c4,0,7.9-2.2,9.9-6.1l32-63.9c2.7-5.4,0.5-12.1-4.9-14.8
		c-5.4-2.7-12.1-0.5-14.8,4.9l-32,63.9C360.9,108.9,363.1,115.5,368.6,118.2z"/>
	<path fill="#FFFFFF" d="M527.6,134.8c-3.1-5.2-9.9-6.9-15.1-3.8l-61.4,36.6c-5.2,3.1-6.9,9.9-3.8,15.1c2.1,3.5,5.7,5.4,9.5,5.4
		c1.9,0,3.9-0.5,5.6-1.6l61.4-36.6C529,146.8,530.7,140,527.6,134.8z"/>
</g>
</svg>
